<svg xmlns="http://www.w3.org/2000/svg" version="1.1" xmlns:xlink="http://www.w3.org/1999/xlink" xmlns:svgjs="http://svgjs.dev/svgjs" width="1500" height="367" viewBox="0 0 1500 367"><g transform="matrix(1,0,0,1,-0.9090909090909918,0.9132596402932052)"><svg viewBox="0 0 396 97" data-background-color="#ffffff" preserveAspectRatio="xMidYMid meet" height="367" width="1500" xmlns="http://www.w3.org/2000/svg" xmlns:xlink="http://www.w3.org/1999/xlink"><g id="tight-bounds" transform="matrix(1,0,0,1,0.2400000000000091,-0.2413792509766779)"><svg viewBox="0 0 395.52 97.48261560614466" height="97.48261560614466" width="395.52"><g><svg viewBox="0 0 582.734432970131 143.6247894662519" height="97.48261560614466" width="395.52"><g transform="matrix(1,0,0,1,187.214432970131,25.651790199120917)"><svg viewBox="0 0 395.52 92.32120906801008" height="92.32120906801008" width="395.52"><g id="textblocktransform"><svg viewBox="0 0 395.52 92.32120906801008" height="92.32120906801008" width="395.52" id="textblock"><g><svg viewBox="0 0 395.52 92.32120906801008" height="92.32120906801008" width="395.52"><g transform="matrix(1,0,0,1,0,0)"><svg width="395.52" viewBox="2.76 -33.45 145.37 33.94" height="92.32120906801008" data-palette-color="#000000"><path d="M7.67-16.63L7.67-16.63Q7.67-9.96 9.75-6.63 11.84-3.3 16.14-3.3L16.14-3.3Q18.6-3.3 20.61-4.97 22.61-6.64 24-10.18L24-10.18 27.88-8.59Q24.24 0.49 16.09 0.49L16.09 0.49Q9.67 0.49 6.21-3.93 2.76-8.35 2.76-16.63L2.76-16.63Q2.76-33.45 15.84-33.45L15.84-33.45Q24.12-33.45 27.22-25.27L27.22-25.27 23.12-23.68Q22.22-26.44 20.3-28.04 18.38-29.64 15.87-29.64L15.87-29.64Q11.69-29.64 9.68-26.49 7.67-23.34 7.67-16.63ZM34.93-29.13L34.93-32.93 55.03-32.93 55.03-29.13 47.31-29.13 47.31-3.81 55.03-3.81 55.03 0 34.93 0 34.93-3.81 42.65-3.81 42.65-29.13 34.93-29.13ZM86.03 0L80.41 0 67.72-27.59Q68.11-23.39 68.11-21.39L68.11-21.39 68.11 0 63.96 0 63.96-32.93 69.38-32.93 82.27-5.15Q81.83-8.67 81.83-11.84L81.83-11.84 81.83-32.93 86.03-32.93 86.03 0ZM117.4 0L93.96 0 93.96-32.93 116.4-32.93 116.4-29.13 98.63-29.13 98.63-18.82 114.93-18.82 114.93-15.06 98.63-15.06 98.63-3.81 117.4-3.81 117.4 0ZM148.13-29.13L137.32-29.13 137.32 0 132.68 0 132.68-29.13 121.87-29.13 121.87-32.93 148.13-32.93 148.13-29.13Z" opacity="1" transform="matrix(1,0,0,1,0,0)" fill="#000000" class="wordmark-text-0" data-fill-palette-color="primary" id="text-0"></path></svg></g></svg></g></svg></g></svg></g><g><svg viewBox="0 0 143.6247894662519 143.6247894662519" height="143.6247894662519" width="143.6247894662519"><g><svg></svg></g><g id="icon-0"><svg viewBox="0 0 143.6247894662519 143.6247894662519" height="143.6247894662519" width="143.6247894662519"><g><path d="M0 71.812c0-39.661 32.151-71.812 71.812-71.812 39.661 0 71.812 32.151 71.813 71.812 0 39.661-32.151 71.812-71.813 71.813-39.661 0-71.812-32.151-71.812-71.813zM71.812 135.299c35.063 0 63.487-28.424 63.487-63.487 0-35.063-28.424-63.487-63.487-63.486-35.063 0-63.487 28.424-63.486 63.486 0 35.063 28.424 63.487 63.486 63.487z" data-fill-palette-color="tertiary" fill="#261f20" stroke="transparent"></path></g><g transform="matrix(1,0,0,1,49.02576978279093,32.53773699990316)"><svg viewBox="0 0 45.57324990067004 78.54931546644559" height="78.54931546644559" width="45.57324990067004"><g><svg xmlns="http://www.w3.org/2000/svg" xmlns:xlink="http://www.w3.org/1999/xlink" version="1.1" x="0" y="0" viewBox="21.679106830508623 1 56.85827385947761 98" enable-background="new 0 0 100 100" xml:space="preserve" height="78.54931546644559" width="45.57324990067004" class="icon-cg-0" data-fill-palette-color="accent" id="cg-0"><g fill="#261f20" data-fill-palette-color="accent"><path fill-rule="evenodd" clip-rule="evenodd" d="M30.545 28.822c-1.165 7.217 0.33 14.85 6.5 19.041C30.758 19.81 45.756 8.664 59.646 1c-16.18 23.046 16.896 23.644 18.777 50.13C80.028 73.71 64.507 91.317 46.639 99c0.206-22.825-22.55-25.933-24.838-44.603C20.905 47.094 25.062 33.766 30.545 28.822z" fill="#261f20" data-fill-palette-color="accent"></path></g></svg></g></svg></g></svg></g></svg></g></svg></g><defs></defs></svg><rect width="395.52" height="97.48261560614466" fill="none" stroke="none" visibility="hidden"></rect></g></svg></g></svg>